<svg id="visual" viewBox="0 0 960 540" width="960" height="540" xmlns="http://www.w3.org/2000/svg" xmlns:xlink="http://www.w3.org/1999/xlink" version="1.1"><rect x="0" y="0" width="960" height="540" fill="#002233"></rect><defs><linearGradient id="grad1_0" x1="43.8%" y1="0%" x2="100%" y2="100%"><stop offset="14.444444444444446%" stop-color="#0066ff" stop-opacity="1"></stop><stop offset="85.55555555555554%" stop-color="#0066ff" stop-opacity="1"></stop></linearGradient></defs><defs><linearGradient id="grad1_1" x1="43.8%" y1="0%" x2="100%" y2="100%"><stop offset="14.444444444444446%" stop-color="#0066ff" stop-opacity="1"></stop><stop offset="85.55555555555554%" stop-color="#002233" stop-opacity="1"></stop></linearGradient></defs><defs><linearGradient id="grad2_0" x1="0%" y1="0%" x2="56.3%" y2="100%"><stop offset="14.444444444444446%" stop-color="#0066ff" stop-opacity="1"></stop><stop offset="85.55555555555554%" stop-color="#0066ff" stop-opacity="1"></stop></linearGradient></defs><defs><linearGradient id="grad2_1" x1="0%" y1="0%" x2="56.3%" y2="100%"><stop offset="14.444444444444446%" stop-color="#002233" stop-opacity="1"></stop><stop offset="85.55555555555554%" stop-color="#0066ff" stop-opacity="1"></stop></linearGradient></defs><g transform="translate(960, 0)"><path d="M0 486C-18.9 480.3 -37.8 474.6 -57.5 473.5C-77.2 472.5 -97.6 476.1 -116.3 471.9C-135 467.7 -151.9 455.6 -169.5 446.9C-187.1 438.3 -205.5 432.9 -222.6 424.1C-239.8 415.3 -255.7 403 -266.4 386C-277.1 368.9 -282.6 347.1 -297.1 335.3C-311.6 323.5 -335.1 321.7 -351.8 311.7C-368.5 301.6 -378.2 283.2 -380.2 262.4C-382.3 241.7 -376.6 218.4 -386.9 203.1C-397.3 187.7 -423.7 180.3 -437.6 166C-451.5 151.6 -452.8 130.5 -447.6 110.3C-442.4 90.2 -430.5 71.1 -435.8 52.9C-441.1 34.7 -463.5 17.4 -486 0L0 0Z" fill="#004b99"></path><path d="M0 243C-9.5 240.1 -18.9 237.3 -28.7 236.8C-38.6 236.2 -48.8 238 -58.2 235.9C-67.5 233.8 -75.9 227.8 -84.8 223.5C-93.6 219.1 -102.7 216.5 -111.3 212.1C-119.9 207.7 -127.9 201.5 -133.2 193C-138.6 184.5 -141.3 173.6 -148.5 167.7C-155.8 161.8 -167.6 160.9 -175.9 155.8C-184.2 150.8 -189.1 141.6 -190.1 131.2C-191.1 120.8 -188.3 109.2 -193.5 101.5C-198.7 93.9 -211.9 90.1 -218.8 83C-225.7 75.8 -226.4 65.2 -223.8 55.2C-221.2 45.1 -215.3 35.6 -217.9 26.5C-220.5 17.4 -231.8 8.7 -243 0L0 0Z" fill="#0066ff"></path></g><g transform="translate(0, 540)"><path d="M0 -486C18 -472 36.1 -458 55.2 -454.7C74.3 -451.3 94.6 -458.6 111.5 -452.5C128.5 -446.3 142.2 -426.7 157.1 -414.2C172 -401.7 188.1 -396.4 205.4 -391.4C222.7 -386.3 241.1 -381.5 257.9 -373.6C274.7 -365.8 289.8 -355 304.4 -343.6C318.9 -332.2 332.8 -320.2 349.6 -309.7C366.3 -299.2 385.9 -290.2 400 -276.1C414 -261.9 422.4 -242.6 420.6 -220.7C418.8 -198.9 406.7 -174.7 414.2 -157.1C421.7 -139.5 448.8 -128.6 455.4 -112.2C461.9 -95.9 448 -74.2 449.7 -54.6C451.4 -35 468.7 -17.5 486 0L0 0Z" fill="#004b99"></path><path d="M0 -243C9 -236 18 -229 27.6 -227.3C37.2 -225.7 47.3 -229.3 55.8 -226.2C64.2 -223.1 71.1 -213.3 78.5 -207.1C86 -200.9 94.1 -198.2 102.7 -195.7C111.3 -193.2 120.6 -190.7 129 -186.8C137.3 -182.9 144.9 -177.5 152.2 -171.8C159.4 -166.1 166.4 -160.1 174.8 -154.8C183.2 -149.6 193 -145.1 200 -138C207 -131 211.2 -121.3 210.3 -110.4C209.4 -99.5 203.4 -87.3 207.1 -78.5C210.9 -69.7 224.4 -64.3 227.7 -56.1C231 -48 224 -37.1 224.8 -27.3C225.7 -17.5 234.3 -8.7 243 0L0 0Z" fill="#0066ff"></path></g></svg>